PathFileType	4	(X/Y/Z)	c:/Users/goper/Files/vsCode/490R/osim_files/C06/C06_ROM.trc
DataRate	CameraRate	NumFrames	NumMarkers	Units                	OrigDataRate	OrigDataStartFrame	OrigNumFrames
250.00	250.00	6	36	mm	250.0	1283	3421
                Frame#	Time	LPSIS			LASIS			LTH1			LTH2			LTH3			LTH4			LLFE			LMFE			LSH1			LSH2			LSH3			LSH4			LLMAL			LMMAL			LCAL			LMTP5			LTOE			LMTP1			RPSIS			RASIS			RTH1			RTH2			RTH3			RTH4			RLFE			RMFE			RSH1			RSH2			RSH3			RSH4			RLMAL			RMMAL			RCAL			RMTP1			RTOE			RMTP5		
		X1	Y1	Z1	X2	Y2	Z2	X3	Y3	Z3	X4	Y4	Z4	X5	Y5	Z5	X6	Y6	Z6	X7	Y7	Z7	X8	Y8	Z8	X9	Y9	Z9	X10	Y10	Z10	X11	Y11	Z11	X12	Y12	Z12	X13	Y13	Z13	X14	Y14	Z14	X15	Y15	Z15	X16	Y16	Z16	X17	Y17	Z17	X18	Y18	Z18	X19	Y19	Z19	X20	Y20	Z20	X21	Y21	Z21	X22	Y22	Z22	X23	Y23	Z23	X24	Y24	Z24	X25	Y25	Z25	X26	Y26	Z26	X27	Y27	Z27	X28	Y28	Z28	X29	Y29	Z29	X30	Y30	Z30	X31	Y31	Z31	X32	Y32	Z32	X33	Y33	Z33	X34	Y34	Z34	X35	Y35	Z35	X36	Y36	Z36

1283	5.12800	-273.80627	975.58826	395.58026	-85.15206	981.33929	306.20877	-169.68373	803.20764	217.77086	-158.75198	741.62372	210.69141	-96.04689	807.40045	232.89537	-94.51231	746.61377	224.24455	-174.61787	480.63492	225.41176	-175.66730	445.57480	336.58871	-269.72266	391.81146	196.83478	-273.31317	347.77695	192.60934	-205.72763	380.74411	193.16592	-219.51291	339.09775	188.56311	-299.07932	96.47886	199.19997	-290.00656	107.66518	277.22455	-369.56714	72.43491	245.19395	-193.34782	26.55163	182.09209	-144.51395	52.56061	251.72316	-172.22975	37.15820	296.95422	-280.49365	970.51385	466.28735	-101.22413	979.15845	554.79938	-192.13678	792.80139	640.09021	-181.49982	730.90771	645.12952	-117.10943	798.41711	637.48212	-116.99397	735.85358	644.03754	-189.79245	463.57236	642.56152	-159.16287	456.20508	540.64471	-262.04147	406.48419	666.54968	-270.07285	358.91312	675.49420	-204.89160	387.30994	668.34393	-221.07941	344.44299	677.32043	-304.86331	98.33398	681.55707	-277.13272	111.20575	601.72455	-373.20117	70.42001	638.17560	-170.08304	44.98035	604.59338	-148.49696	50.32689	645.16754	-195.85986	26.54739	712.31976
1284	5.13200	-274.45078	975.84222	394.15115	-85.54564	981.47131	304.80640	-169.95421	803.31415	216.06985	-158.96524	741.40820	209.11534	-96.41848	807.40063	231.43791	-94.91309	746.59253	222.92976	-175.23668	480.66028	224.44603	-176.39565	445.92218	335.78290	-270.18634	391.74023	195.95851	-273.75339	347.73087	191.83672	-206.25139	380.60663	192.40749	-219.97446	338.90063	187.77170	-299.19232	96.25264	199.00122	-290.21146	107.59148	277.03165	-369.59531	72.35245	245.17459	-193.35213	26.44457	182.08372	-144.45451	52.69771	251.68318	-172.29478	37.12273	296.96390	-280.85468	970.49908	464.93900	-101.49991	978.72614	553.39703	-192.82422	792.61230	638.33521	-181.84926	730.46655	643.14490	-117.70106	798.26593	635.98846	-117.55891	735.71362	642.68286	-190.00952	463.43979	641.67676	-159.41699	455.84143	539.69257	-262.21085	406.46255	665.75140	-270.21576	358.87338	674.85858	-204.99382	387.25699	667.57318	-221.24590	344.40851	676.63354	-304.91418	98.30008	681.40869	-277.16367	111.06490	601.54584	-373.23907	70.32828	638.14117	-170.11711	44.94557	604.59521	-148.52841	50.32361	645.14966	-195.87309	26.56904	712.30719
1285	5.13600	-274.76468	976.05255	392.75784	-85.98170	981.62750	303.42715	-170.34190	803.39789	214.36826	-159.32864	741.48749	207.58585	-96.74197	807.43903	230.00604	-95.35941	746.61371	221.61307	-175.84459	480.66672	223.53748	-177.33354	446.04495	334.92679	-270.95383	391.36404	195.21472	-274.17194	347.47461	191.12236	-206.76515	380.51096	191.57524	-220.50769	338.68958	187.07352	-299.30569	96.02300	198.78249	-290.39893	107.47523	276.80600	-369.60233	72.24483	245.11812	-193.36850	26.35164	182.05272	-144.52072	52.62646	251.65118	-172.33430	37.08857	296.92957	-281.17520	970.44147	463.47086	-101.90804	978.28265	552.04395	-193.51323	792.41400	636.60895	-182.48524	730.25629	641.54669	-118.34467	798.05298	634.51379	-118.07345	735.59277	641.26392	-190.27519	463.36633	640.75549	-159.44112	455.59747	538.78253	-262.34500	406.42783	664.96045	-270.40723	358.85229	674.09698	-205.17538	387.22324	666.77771	-221.33777	344.44370	675.91016	-304.94812	98.26239	681.22797	-277.20493	110.89743	601.33752	-373.23962	70.19916	638.12048	-170.14876	44.88796	604.58374	-148.57292	50.30201	645.15149	-195.90390	26.58404	712.30475
1286	5.14000	-275.22922	976.30048	391.33725	-86.37283	981.74634	302.00543	-170.59221	803.50531	212.66409	-159.94434	741.54016	206.29395	-97.12804	807.37061	228.56062	-95.66293	746.57904	220.31085	-176.53346	480.64453	222.51651	-178.17592	446.23584	334.08728	-271.52026	391.06430	194.43277	-274.79190	347.18179	190.26865	-207.38478	380.34680	190.71384	-221.03401	338.56763	186.43140	-299.39005	95.77287	198.54839	-290.58377	107.38148	276.57495	-369.62225	72.15241	245.05449	-193.37091	26.24133	182.03345	-144.61443	52.56370	251.52023	-172.39079	37.03812	296.90848	-281.73383	970.44690	461.96103	-102.27827	977.80872	550.72223	-194.04199	792.26093	634.88757	-183.05650	730.10297	640.00793	-118.93185	797.90137	633.01349	-118.77796	735.39008	639.92725	-190.40031	463.30429	639.84302	-158.92422	455.57257	537.95441	-262.51086	406.37106	664.12939	-270.50903	358.86871	673.39764	-205.23482	387.17047	666.01782	-221.47324	344.41351	675.23840	-304.95163	98.21646	681.07550	-277.28885	110.70129	601.12897	-373.26541	70.07169	638.10651	-170.17850	44.84523	604.57532	-148.57500	50.29982	645.13184	-195.88644	26.59759	712.28534
1287	5.14400	-275.52841	976.42334	389.92230	-86.79996	981.87244	300.63818	-170.97057	803.57819	210.94977	-160.13585	741.86621	204.47879	-97.43917	807.43939	227.10989	-96.17184	746.57086	218.98473	-177.11783	480.60690	221.59944	-178.94585	446.39273	333.16458	-272.13934	390.84552	193.45840	-275.33740	346.75641	189.74757	-207.96742	380.13492	189.96121	-221.50282	338.26462	185.63304	-299.46579	95.58614	198.29697	-290.73203	107.27755	276.35004	-369.62848	72.05163	244.98622	-193.37750	26.15387	181.98932	-144.63799	52.50166	251.54922	-172.43188	36.99999	296.85828	-283.14569	970.55786	460.29730	-102.64891	977.37970	549.32159	-194.74150	792.05493	633.06903	-183.58917	729.91736	638.46454	-119.62101	797.74780	631.49908	-119.37016	735.23700	638.57477	-190.71074	463.26102	638.84674	-159.84062	455.02390	536.92023	-262.69858	406.36261	663.30920	-270.61426	358.88562	672.66699	-205.44406	387.12827	665.18518	-221.64159	344.38400	674.54559	-304.95074	98.17771	680.91138	-277.39630	110.51250	600.92487	-373.28906	69.93832	638.08649	-170.22728	44.77388	604.55133	-148.58578	50.27671	645.11646	-195.87762	26.62149	712.27362
1288	5.14800	-275.87476	976.65179	388.53998	-87.25533	982.00238	299.27396	-171.27898	803.64142	209.27016	-160.60173	741.93927	203.03110	-97.94073	807.42584	225.76202	-96.60416	746.59045	217.68578	-177.86172	480.53281	220.62398	-179.85658	446.50696	332.26718	-272.68454	390.59106	192.63208	-275.67917	346.62436	188.75974	-208.54401	379.95728	189.19385	-221.98419	338.07742	184.93147	-299.49927	95.41286	198.06880	-290.85818	107.21804	276.13602	-369.64722	71.94282	244.90866	-193.40280	26.06112	181.95197	-144.41829	52.73907	251.39275	-172.46837	36.99907	296.82608	-283.33618	970.47357	458.94589	-103.01991	976.96082	547.89911	-195.38718	791.89575	631.36066	-184.30281	729.69055	636.76996	-120.26276	797.58826	630.01898	-120.02679	735.11224	637.20471	-190.95540	463.18311	637.96002	-159.18636	455.20605	536.03589	-262.81586	406.35635	662.45081	-270.76483	358.90201	671.90741	-205.55890	387.15280	664.44946	-221.84373	344.40662	673.87268	-304.99545	98.16061	680.75806	-277.51071	110.31975	600.72211	-373.33688	69.81093	638.05035	-170.26160	44.75695	604.52582	-148.61879	50.29885	645.08801	-195.88202	26.63899	712.26208
